<?xml version="1.0" encoding="UTF-8"?>
<svg xmlns="http://www.w3.org/2000/svg" viewBox="0 0 1080 1350" width="1080" height="1350">
  <defs>
    <style>
      @import url('https://fonts.googleapis.com/css2?family=Playfair+Display:ital,wght@1,400;1,700&amp;family=Inter:wght@300;400;500&amp;display=swap');
      .serif { font-family: 'Playfair Display', 'DejaVu Serif', 'Bodoni 72', 'Didot', serif; font-style: italic; }
      .sans { font-family: 'Inter', 'Lato', sans-serif; }
    </style>
  </defs>
  <rect width="1080" height="1350" fill="#1A1A1A"/>
  <!-- Arco em tijolos -->
  <rect x="-25.63" y="-12.00" width="51.26" height="24.00" fill="#F4EFE6" transform="translate(351.93,352.96) rotate(278.18)"/>
  <rect x="-25.63" y="-12.00" width="51.26" height="24.00" fill="#F4EFE6" transform="translate(367.17,301.07) rotate(294.55)"/>
  <rect x="-25.63" y="-12.00" width="51.26" height="24.00" fill="#F4EFE6" transform="translate(396.41,255.58) rotate(310.91)"/>
  <rect x="-25.63" y="-12.00" width="51.26" height="24.00" fill="#F4EFE6" transform="translate(437.28,220.16) rotate(327.27)"/>
  <rect x="-25.63" y="-12.00" width="51.26" height="24.00" fill="#F4EFE6" transform="translate(486.47,197.70) rotate(343.64)"/>
  <rect x="-25.63" y="-12.00" width="51.26" height="24.00" fill="#F4EFE6" transform="translate(540.00,190.00) rotate(360.00)"/>
  <rect x="-25.63" y="-12.00" width="51.26" height="24.00" fill="#F4EFE6" transform="translate(593.53,197.70) rotate(376.36)"/>
  <rect x="-25.63" y="-12.00" width="51.26" height="24.00" fill="#F4EFE6" transform="translate(642.72,220.16) rotate(392.73)"/>
  <rect x="-25.63" y="-12.00" width="51.26" height="24.00" fill="#F4EFE6" transform="translate(683.59,255.58) rotate(409.09)"/>
  <rect x="-25.63" y="-12.00" width="51.26" height="24.00" fill="#F4EFE6" transform="translate(712.83,301.07) rotate(425.45)"/>
  <rect x="-25.63" y="-12.00" width="51.26" height="24.00" fill="#F4EFE6" transform="translate(728.07,352.96) rotate(441.82)"/>
  <rect x="-12.00" y="-46.88" width="24.00" height="93.75" fill="#F4EFE6" transform="translate(350.00,431.38) rotate(0.00)"/>
  <rect x="-12.00" y="-46.88" width="24.00" height="93.75" fill="#F4EFE6" transform="translate(350.00,528.12) rotate(0.00)"/>
  <rect x="-12.00" y="-46.88" width="24.00" height="93.75" fill="#F4EFE6" transform="translate(350.00,624.88) rotate(0.00)"/>
  <rect x="-12.00" y="-46.88" width="24.00" height="93.75" fill="#F4EFE6" transform="translate(350.00,721.62) rotate(0.00)"/>
  <rect x="-12.00" y="-46.88" width="24.00" height="93.75" fill="#F4EFE6" transform="translate(730.00,431.38) rotate(0.00)"/>
  <rect x="-12.00" y="-46.88" width="24.00" height="93.75" fill="#F4EFE6" transform="translate(730.00,528.12) rotate(0.00)"/>
  <rect x="-12.00" y="-46.88" width="24.00" height="93.75" fill="#F4EFE6" transform="translate(730.00,624.88) rotate(0.00)"/>
  <rect x="-12.00" y="-46.88" width="24.00" height="93.75" fill="#F4EFE6" transform="translate(730.00,721.62) rotate(0.00)"/>
  <!-- Monograma -->
  <text class="serif" x="540.0" y="510" font-size="220"
        text-anchor="middle" dominant-baseline="central"
        font-weight="700" fill="#F4EFE6">PB</text>
  <!-- Filete -->
  <line x1="480.0" y1="700"
        x2="600.0" y2="700"
        stroke="#F4EFE6" stroke-width="3"/>
  <!-- Wordmark -->
  <text class="serif" x="540.0" y="970" font-size="72"
        text-anchor="middle" dominant-baseline="central"
        font-weight="400" letter-spacing="6" fill="#F4EFE6">PÁTEO BENTO</text>
  <!-- Subtitulo -->
  <text class="sans" x="540.0" y="1100" font-size="22"
        text-anchor="middle" dominant-baseline="central"
        font-weight="400" letter-spacing="6" fill="#F4EFE6">SÃO BENTO · LISBOA</text>
</svg>