<svg xmlns="http://www.w3.org/2000/svg" viewBox="0 0 256 256" width="256" height="256">
  <rect width="256" height="256" rx="56" fill="#25D366"/>
  <path fill="#FFFFFF" d="M128 36c-50.7 0-92 41.3-92 92 0 16.1 4.2 31.8 12.2 45.7L36 220l46.7-12.2C95.8 215.5 111.7 220 128 220c50.7 0 92-41.3 92-92s-41.3-92-92-92zm0 167.7c-14.8 0-29.3-4-41.9-11.5l-3-1.8-31.1 8.2 8.3-30.3-2-3.1c-8.3-13.1-12.7-28.3-12.7-43.9 0-45.4 36.9-82.3 82.3-82.3 22 0 42.7 8.6 58.2 24.1s24.1 36.2 24.1 58.2c0 45.4-36.9 82.4-82.2 82.4zm45.1-61.7c-2.5-1.2-14.6-7.2-16.9-8s-3.9-1.2-5.6 1.2-6.4 8-7.9 9.7-2.9 1.9-5.4.6c-2.5-1.2-10.4-3.8-19.9-12.2-7.4-6.6-12.3-14.7-13.8-17.2-1.4-2.5-.2-3.8 1.1-5 1.1-1.1 2.5-2.9 3.8-4.4s1.7-2.5 2.5-4.1.4-3.1-.2-4.4c-.6-1.2-5.6-13.5-7.7-18.5-2-4.9-4.1-4.2-5.6-4.3l-4.8-.1c-1.6 0-4.4.6-6.7 3.1s-8.8 8.6-8.8 21 9 24.4 10.3 26.1c1.2 1.7 17.7 27 42.8 37.9 6 2.6 10.6 4.1 14.3 5.3 6 1.9 11.4 1.6 15.7 1 4.8-.7 14.6-6 16.7-11.8 2.1-5.8 2.1-10.8 1.4-11.8-.6-1-2.3-1.5-4.8-2.7z"/>
</svg>
